<?xml version="1.0" encoding="utf-8"?>
<!-- Generator: Adobe Illustrator 23.0.0, SVG Export Plug-In . SVG Version: 6.00 Build 0)  -->
<svg version="1.1" id="Layer_1" xmlns="http://www.w3.org/2000/svg" xmlns:xlink="http://www.w3.org/1999/xlink" x="0px" y="0px"
	 viewBox="0 0 400 300" style="enable-background:new 0 0 400 300;" xml:space="preserve">
<style type="text/css">
	.st0{opacity:0.5;fill:#7CE994;stroke:#7CE994;stroke-width:1.51;}
	.st1{opacity:0.5;fill:#83E598;stroke:#83E598;stroke-width:1.51;}
	.st2{opacity:0.5;fill:#77EB91;stroke:#77EB91;stroke-width:1.51;}
	.st3{opacity:0.5;fill:#86E39B;stroke:#86E39B;stroke-width:1.51;}
	.st4{opacity:0.5;fill:#81E997;stroke:#81E997;stroke-width:1.51;}
	.st5{opacity:0.5;fill:#88E59C;stroke:#88E59C;stroke-width:1.51;}
	.st6{opacity:0.5;fill:#7FEA96;stroke:#7FEA96;stroke-width:1.51;}
	.st7{opacity:0.5;fill:#80E696;stroke:#80E696;stroke-width:1.51;}
	.st8{opacity:0.5;fill:#7FEC96;stroke:#7FEC96;stroke-width:1.51;}
	.st9{opacity:0.5;fill:#90E9A2;stroke:#90E9A2;stroke-width:1.51;}
	.st10{opacity:0.5;fill:#8AE59E;stroke:#8AE59E;stroke-width:1.51;}
	.st11{opacity:0.5;fill:#89E79C;stroke:#89E79C;stroke-width:1.51;}
	.st12{opacity:0.5;fill:#8CEB9F;stroke:#8CEB9F;stroke-width:1.51;}
	.st13{opacity:0.5;fill:#9AEBA9;stroke:#9AEBA9;stroke-width:1.51;}
	.st14{opacity:0.5;fill:#84E499;stroke:#84E499;stroke-width:1.51;}
	.st15{opacity:0.5;fill:#90E2A1;stroke:#90E2A1;stroke-width:1.51;}
	.st16{opacity:0.5;fill:#94DFA4;stroke:#94DFA4;stroke-width:1.51;}
	.st17{opacity:0.5;fill:#8EDEA0;stroke:#8EDEA0;stroke-width:1.51;}
	.st18{opacity:0.5;fill:#9FE7AA;stroke:#9FE7AA;stroke-width:1.51;}
	.st19{opacity:0.5;fill:#A3E4AF;stroke:#A3E4AF;stroke-width:1.51;}
	.st20{opacity:0.5;fill:#94E7A4;stroke:#94E7A4;stroke-width:1.51;}
	.st21{opacity:0.5;fill:#94E7A5;stroke:#94E7A5;stroke-width:1.51;}
	.st22{opacity:0.5;fill:#9EE6AC;stroke:#9EE6AC;stroke-width:1.51;}
	.st23{opacity:0.5;fill:#A6E7B0;stroke:#A6E7B0;stroke-width:1.51;}
	.st24{opacity:0.5;fill:#A2E2AD;stroke:#A2E2AD;stroke-width:1.51;}
	.st25{opacity:0.5;fill:#8FE6A0;stroke:#8FE6A0;stroke-width:1.51;}
	.st26{opacity:0.5;fill:#9DE5A9;stroke:#9DE5A9;stroke-width:1.51;}
	.st27{opacity:0.5;fill:#9DE4A9;stroke:#9DE4A9;stroke-width:1.51;}
	.st28{opacity:0.5;fill:#A1E6AB;stroke:#A1E6AB;stroke-width:1.51;}
	.st29{opacity:0.5;fill:#ABEAB1;stroke:#ABEAB1;stroke-width:1.51;}
	.st30{opacity:0.5;fill:#A0E2AC;stroke:#A0E2AC;stroke-width:1.51;}
	.st31{opacity:0.5;fill:#90EBA2;stroke:#90EBA2;stroke-width:1.51;}
	.st32{opacity:0.5;fill:#96E9A7;stroke:#96E9A7;stroke-width:1.51;}
	.st33{opacity:0.5;fill:#9CEBAB;stroke:#9CEBAB;stroke-width:1.51;}
	.st34{opacity:0.5;fill:#A5EBB1;stroke:#A5EBB1;stroke-width:1.51;}
	.st35{opacity:0.5;fill:#97EBA7;stroke:#97EBA7;stroke-width:1.51;}
	.st36{opacity:0.5;fill:#9DECAC;stroke:#9DECAC;stroke-width:1.51;}
	.st37{opacity:0.5;fill:#9DE5AB;stroke:#9DE5AB;stroke-width:1.51;}
	.st38{opacity:0.5;fill:#C2EBC2;stroke:#C2EBC2;stroke-width:1.51;}
	.st39{opacity:0.5;fill:#B9ECBB;stroke:#B9ECBB;stroke-width:1.51;}
	.st40{opacity:0.5;fill:#BCEABF;stroke:#BCEABF;stroke-width:1.51;}
	.st41{opacity:0.5;fill:#A7EAB2;stroke:#A7EAB2;stroke-width:1.51;}
	.st42{opacity:0.5;fill:#A3E4B0;stroke:#A3E4B0;stroke-width:1.51;}
	.st43{opacity:0.5;fill:#9DE6AA;stroke:#9DE6AA;stroke-width:1.51;}
	.st44{opacity:0.5;fill:#ABEAB2;stroke:#ABEAB2;stroke-width:1.51;}
	.st45{opacity:0.5;fill:#9EEAAC;stroke:#9EEAAC;stroke-width:1.51;}
	.st46{opacity:0.5;fill:#A2E9AF;stroke:#A2E9AF;stroke-width:1.51;}
	.st47{opacity:0.5;fill:#A3E6B0;stroke:#A3E6B0;stroke-width:1.51;}
	.st48{opacity:0.5;fill:#B3E6BC;stroke:#B3E6BC;stroke-width:1.51;}
	.st49{opacity:0.5;fill:#A8E7B4;stroke:#A8E7B4;stroke-width:1.51;}
	.st50{opacity:0.5;fill:#A2EDAF;stroke:#A2EDAF;stroke-width:1.51;}
	.st51{opacity:0.5;fill:#B4E6BB;stroke:#B4E6BB;stroke-width:1.51;}
	.st52{opacity:0.5;fill:#C3E9C6;stroke:#C3E9C6;stroke-width:1.51;}
	.st53{opacity:0.5;fill:#D2EBD0;stroke:#D2EBD0;stroke-width:1.51;}
	.st54{opacity:0.5;fill:#B8E8BE;stroke:#B8E8BE;stroke-width:1.51;}
	.st55{opacity:0.5;fill:#B9E3BD;stroke:#B9E3BD;stroke-width:1.51;}
	.st56{opacity:0.5;fill:#BCE9BD;stroke:#BCE9BD;stroke-width:1.51;}
	.st57{opacity:0.5;fill:#C0E6C1;stroke:#C0E6C1;stroke-width:1.51;}
	.st58{opacity:0.5;fill:#ADE3B4;stroke:#ADE3B4;stroke-width:1.51;}
	.st59{opacity:0.5;fill:#BCECBD;stroke:#BCECBD;stroke-width:1.51;}
	.st60{opacity:0.5;fill:#ABE8B2;stroke:#ABE8B2;stroke-width:1.51;}
	.st61{opacity:0.5;fill:#C9E5C8;stroke:#C9E5C8;stroke-width:1.51;}
	.st62{opacity:0.5;fill:#A5ECB2;stroke:#A5ECB2;stroke-width:1.51;}
	.st63{opacity:0.5;fill:#AFEBB9;stroke:#AFEBB9;stroke-width:1.51;}
	.st64{opacity:0.5;fill:#B8ECC0;stroke:#B8ECC0;stroke-width:1.51;}
	.st65{opacity:0.5;fill:#AEEDB9;stroke:#AEEDB9;stroke-width:1.51;}
	.st66{opacity:0.5;fill:#B6E2BB;stroke:#B6E2BB;stroke-width:1.51;}
	.st67{opacity:0.5;fill:#B6E8B9;stroke:#B6E8B9;stroke-width:1.51;}
	.st68{opacity:0.5;fill:#B4EBBD;stroke:#B4EBBD;stroke-width:1.51;}
	.st69{opacity:0.5;fill:#AFEEB9;stroke:#AFEEB9;stroke-width:1.51;}
	.st70{opacity:0.5;fill:#AEECB7;stroke:#AEECB7;stroke-width:1.51;}
	.st71{opacity:0.5;fill:#B2EBBC;stroke:#B2EBBC;stroke-width:1.51;}
	.st72{opacity:0.5;fill:#CBE5CA;stroke:#CBE5CA;stroke-width:1.51;}
	.st73{opacity:0.5;fill:#D3E6CF;stroke:#D3E6CF;stroke-width:1.51;}
	.st74{opacity:0.5;fill:#B8EDC0;stroke:#B8EDC0;stroke-width:1.51;}
	.st75{opacity:0.5;fill:#BFEDC6;stroke:#BFEDC6;stroke-width:1.51;}
	.st76{opacity:0.5;fill:#BBEDC3;stroke:#BBEDC3;stroke-width:1.51;}
	.st77{opacity:0.5;fill:#C8E4C8;stroke:#C8E4C8;stroke-width:1.51;}
	.st78{opacity:0.5;fill:#B8ECBA;stroke:#B8ECBA;stroke-width:1.51;}
	.st79{opacity:0.5;fill:#C5E9C8;stroke:#C5E9C8;stroke-width:1.51;}
	.st80{opacity:0.5;fill:#B0EBB9;stroke:#B0EBB9;stroke-width:1.51;}
	.st81{opacity:0.5;fill:#B7E6BE;stroke:#B7E6BE;stroke-width:1.51;}
	.st82{opacity:0.5;fill:#B5EEBD;stroke:#B5EEBD;stroke-width:1.51;}
	.st83{opacity:0.5;fill:#B3E8BC;stroke:#B3E8BC;stroke-width:1.51;}
	.st84{opacity:0.5;fill:#AAEDB5;stroke:#AAEDB5;stroke-width:1.51;}
	.st85{opacity:0.5;fill:#ABE8B6;stroke:#ABE8B6;stroke-width:1.51;}
	.st86{opacity:0.5;fill:#B4E6BC;stroke:#B4E6BC;stroke-width:1.51;}
	.st87{opacity:0.5;fill:#B7E6BF;stroke:#B7E6BF;stroke-width:1.51;}
	.st88{opacity:0.5;fill:#C8EBC8;stroke:#C8EBC8;stroke-width:1.51;}
	.st89{opacity:0.5;fill:#C1EDC8;stroke:#C1EDC8;stroke-width:1.51;}
	.st90{opacity:0.5;fill:#BFECC6;stroke:#BFECC6;stroke-width:1.51;}
	.st91{opacity:0.5;fill:#B4EDBD;stroke:#B4EDBD;stroke-width:1.51;}
	.st92{opacity:0.5;fill:#BBEABC;stroke:#BBEABC;stroke-width:1.51;}
	.st93{opacity:0.5;fill:#E1E8D9;stroke:#E1E8D9;stroke-width:1.51;}
	.st94{opacity:0.5;fill:#B4E7BD;stroke:#B4E7BD;stroke-width:1.51;}
	.st95{opacity:0.5;fill:#C4E8C8;stroke:#C4E8C8;stroke-width:1.51;}
	.st96{opacity:0.5;fill:#C9E9CC;stroke:#C9E9CC;stroke-width:1.51;}
	.st97{opacity:0.5;fill:#BEEDC5;stroke:#BEEDC5;stroke-width:1.51;}
	.st98{opacity:0.5;fill:#D9ECD6;stroke:#D9ECD6;stroke-width:1.51;}
	.st99{opacity:0.5;fill:#D3EAD2;stroke:#D3EAD2;stroke-width:1.51;}
	.st100{opacity:0.5;fill:#B1EABA;stroke:#B1EABA;stroke-width:1.51;}
	.st101{opacity:0.5;fill:#ADEBB7;stroke:#ADEBB7;stroke-width:1.51;}
	.st102{opacity:0.5;fill:#C1EBC3;stroke:#C1EBC3;stroke-width:1.51;}
	.st103{opacity:0.5;fill:#BDECBE;stroke:#BDECBE;stroke-width:1.51;}
	.st104{opacity:0.5;fill:#CCEBCB;stroke:#CCEBCB;stroke-width:1.51;}
	.st105{opacity:0.5;fill:#D6EBD4;stroke:#D6EBD4;stroke-width:1.51;}
	.st106{opacity:0.5;fill:#BDE8BE;stroke:#BDE8BE;stroke-width:1.51;}
	.st107{opacity:0.5;fill:#E2E9DA;stroke:#E2E9DA;stroke-width:1.51;}
	.st108{opacity:0.5;fill:#ECEAE2;stroke:#ECEAE2;stroke-width:1.51;}
	.st109{opacity:0.5;fill:#C7E5C7;stroke:#C7E5C7;stroke-width:1.51;}
	.st110{opacity:0.5;fill:#C4EDCA;stroke:#C4EDCA;stroke-width:1.51;}
	.st111{opacity:0.5;fill:#CEEED2;stroke:#CEEED2;stroke-width:1.51;}
	.st112{opacity:0.5;fill:#C6EDCB;stroke:#C6EDCB;stroke-width:1.51;}
	.st113{opacity:0.5;fill:#AFEEB8;stroke:#AFEEB8;stroke-width:1.51;}
	.st114{opacity:0.5;fill:#AEEDB7;stroke:#AEEDB7;stroke-width:1.51;}
	.st115{opacity:0.5;fill:#C1E5C2;stroke:#C1E5C2;stroke-width:1.51;}
	.st116{opacity:0.5;fill:#DEECDA;stroke:#DEECDA;stroke-width:1.51;}
	.st117{opacity:0.5;fill:#C6E8CA;stroke:#C6E8CA;stroke-width:1.51;}
	.st118{opacity:0.5;fill:#C1E7C6;stroke:#C1E7C6;stroke-width:1.51;}
	.st119{opacity:0.5;fill:#DEE8D7;stroke:#DEE8D7;stroke-width:1.51;}
	.st120{opacity:0.5;fill:#D7EBD4;stroke:#D7EBD4;stroke-width:1.51;}
	.st121{opacity:0.5;fill:#D4EBD1;stroke:#D4EBD1;stroke-width:1.51;}
	.st122{opacity:0.5;fill:#B6E6BF;stroke:#B6E6BF;stroke-width:1.51;}
	.st123{opacity:0.5;fill:#D8EBD6;stroke:#D8EBD6;stroke-width:1.51;}
	.st124{opacity:0.5;fill:#C0E5C2;stroke:#C0E5C2;stroke-width:1.51;}
	.st125{opacity:0.5;fill:#C3EBC4;stroke:#C3EBC4;stroke-width:1.51;}
	.st126{opacity:0.5;fill:#E3E9DB;stroke:#E3E9DB;stroke-width:1.51;}
	.st127{opacity:0.5;fill:#E9E9DF;stroke:#E9E9DF;stroke-width:1.51;}
	.st128{opacity:0.5;fill:#D1E6CE;stroke:#D1E6CE;stroke-width:1.51;}
	.st129{opacity:0.5;fill:#B1EEBA;stroke:#B1EEBA;stroke-width:1.51;}
	.st130{opacity:0.5;fill:#B7EDBE;stroke:#B7EDBE;stroke-width:1.51;}
	.st131{opacity:0.5;fill:#D0EAD1;stroke:#D0EAD1;stroke-width:1.51;}
	.st132{opacity:0.5;fill:#E1ECDD;stroke:#E1ECDD;stroke-width:1.51;}
	.st133{opacity:0.5;fill:#D6EFD8;stroke:#D6EFD8;stroke-width:1.51;}
	.st134{opacity:0.5;fill:#E5EDE0;stroke:#E5EDE0;stroke-width:1.51;}
	.st135{opacity:0.5;fill:#E0ECDC;stroke:#E0ECDC;stroke-width:1.51;}
	.st136{opacity:0.5;fill:#C6EDCC;stroke:#C6EDCC;stroke-width:1.51;}
	.st137{opacity:0.5;fill:#EFEAE4;stroke:#EFEAE4;stroke-width:1.51;}
	.st138{opacity:0.5;fill:#D1EBCF;stroke:#D1EBCF;stroke-width:1.51;}
	.st139{opacity:0.5;fill:#D4EBD2;stroke:#D4EBD2;stroke-width:1.51;}
	.st140{opacity:0.5;fill:#DDECDA;stroke:#DDECDA;stroke-width:1.51;}
	.st141{opacity:0.5;fill:#E2ECDE;stroke:#E2ECDE;stroke-width:1.51;}
	.st142{opacity:0.5;fill:#D0EED3;stroke:#D0EED3;stroke-width:1.51;}
	.st143{opacity:0.5;fill:#BCEDC3;stroke:#BCEDC3;stroke-width:1.51;}
	.st144{opacity:0.5;fill:#AFECB8;stroke:#AFECB8;stroke-width:1.51;}
	.st145{opacity:0.5;fill:#AEEEB7;stroke:#AEEEB7;stroke-width:1.51;}
	.st146{opacity:0.5;fill:#C8EDCD;stroke:#C8EDCD;stroke-width:1.51;}
	.st147{opacity:0.5;fill:#D1EED4;stroke:#D1EED4;stroke-width:1.51;}
	.st148{opacity:0.5;fill:#D5EAD5;stroke:#D5EAD5;stroke-width:1.51;}
	.st149{opacity:0.5;fill:#DAEFDC;stroke:#DAEFDC;stroke-width:1.51;}
	.st150{opacity:0.5;fill:#DAECD7;stroke:#DAECD7;stroke-width:1.51;}
	.st151{opacity:0.5;fill:#D5EFD8;stroke:#D5EFD8;stroke-width:1.51;}
	.st152{opacity:0.5;fill:#B2EEBB;stroke:#B2EEBB;stroke-width:1.51;}
	.st153{opacity:0.5;fill:#D0EED4;stroke:#D0EED4;stroke-width:1.51;}
	.st154{opacity:0.5;fill:#CAEBCA;stroke:#CAEBCA;stroke-width:1.51;}
</style>
<path class="st0" d="M205,143l-11-36l-34,23L205,143z"/>
<path class="st1" d="M194,107l-27-37l-7,60L194,107z"/>
<path class="st2" d="M160,130l51,56l-6-43L160,130z"/>
<path class="st3" d="M167,70l-42,38l35,22L167,70z"/>
<path class="st4" d="M160,130l-30,58l81-2L160,130z"/>
<path class="st3" d="M194,107l-1-56l-26,19L194,107z"/>
<path class="st5" d="M264,78l-71-27l1,56L264,78z"/>
<path class="st6" d="M266,138l-72-31l11,36L266,138z"/>
<path class="st7" d="M125,108l5,80l30-58L125,108z"/>
<path class="st8" d="M211,186l55-48l-61,5L211,186z"/>
<path class="st9" d="M130,188l24,61l57-63L130,188z"/>
<path class="st10" d="M72,135l49,57l9-4L72,135z"/>
<path class="st11" d="M266,138l-2-60l-70,29L266,138z"/>
<path class="st12" d="M211,186l53,19l2-67L211,186z"/>
<path class="st13" d="M262,257l2-52l-53-19L262,257z"/>
<path class="st14" d="M125,108l-53,27l58,53L125,108z"/>
<path class="st15" d="M70,112l2,23l53-27L70,112z"/>
<path class="st16" d="M70,112l55-4L71,67L70,112z"/>
<path class="st17" d="M71,67l54,41l42-38L71,67z"/>
<path class="st18" d="M264,78l-34-63l-37,36L264,78z"/>
<path class="st19" d="M320,63l-48-16l-8,31L320,63z"/>
<path class="st20" d="M325,120l-61-42l2,60L325,120z"/>
<path class="st21" d="M121,192l33,57l-24-61L121,192z"/>
<path class="st22" d="M90,255l64-6l-33-57L90,255z"/>
<path class="st23" d="M272,47l-42-32l34,63L272,47z"/>
<path class="st24" d="M163-4L71,67l96,3L163-4z"/>
<path class="st25" d="M72,135l-16,4l65,53L72,135z"/>
<path class="st26" d="M47,123l9,16l16-4L47,123z"/>
<path class="st27" d="M70,112l-23,11l25,12L70,112z"/>
<path class="st28" d="M163-4l4,74l26-19L163-4z"/>
<path class="st29" d="M230,15L163-4l30,55L230,15z"/>
<path class="st30" d="M71,67l-24,56l23-11L71,67z"/>
<path class="st31" d="M264,205l59-74l-57,7L264,205z"/>
<path class="st32" d="M323,131l2-11l-59,18L323,131z"/>
<path class="st33" d="M264,205l28,16l31-90L264,205z"/>
<path class="st34" d="M262,257l30-36l-28-16L262,257z"/>
<path class="st35" d="M154,249l46,28l11-91L154,249z"/>
<path class="st36" d="M200,277l62-20l-51-71L200,277z"/>
<path class="st37" d="M325,120l-5-57l-56,15L325,120z"/>
<path class="st38" d="M278-18h-56l8,33L278-18z"/>
<path class="st39" d="M230,15l-8-33L163-4L230,15z"/>
<path class="st40" d="M278-18l-48,33l42,32L278-18z"/>
<path class="st41" d="M154,249l-21,43l67-15L154,249z"/>
<path class="st42" d="M56,226l34,29l31-63L56,226z"/>
<path class="st43" d="M56,226l65-34l-65-53V226z"/>
<path class="st44" d="M-6,132l62,94v-87L-6,132z"/>
<path class="st45" d="M357,136l-32-16l-2,11L357,136z"/>
<path class="st46" d="M357,136l-13-46l-19,30L357,136z"/>
<path class="st47" d="M325,120l19-30l-24-27L325,120z"/>
<path class="st48" d="M102,322l31-30l-43-37L102,322z"/>
<path class="st49" d="M90,255l43,37l21-43L90,255z"/>
<path class="st50" d="M369,211l-12-75l-34-5L369,211z"/>
<path class="st51" d="M56,226v20l34,9L56,226z"/>
<path class="st52" d="M-26,227l82,19v-20L-26,227z"/>
<path class="st53" d="M303-43l-25,25l92,42L303-43z"/>
<path class="st54" d="M320,63l-42-81l-6,65L320,63z"/>
<path class="st55" d="M163-4L92-25L71,67L163-4z"/>
<path class="st56" d="M193-52l-72,14l42,34L193-52z"/>
<path class="st39" d="M193-52L163-4l59-14L193-52z"/>
<path class="st57" d="M121-38L92-25l71,21L121-38z"/>
<path class="st58" d="M71,67l-75,42l51,14L71,67z"/>
<path class="st59" d="M238-79l-45,27l29,34L238-79z"/>
<path class="st60" d="M47,123l-53,9l62,7L47,123z"/>
<path class="st61" d="M49-20L25,36l46,31L49-20z"/>
<path class="st62" d="M292,221l77-10l-46-80L292,221z"/>
<path class="st63" d="M262,257l52,8l-22-44L262,257z"/>
<path class="st64" d="M280,311l34-46l-52-8L280,311z"/>
<path class="st65" d="M250,314l12-57l-62,20L250,314z"/>
<path class="st66" d="M25,36l-29,73l75-42L25,36z"/>
<path class="st67" d="M-4,109l-2,23l53-9L-4,109z"/>
<path class="st68" d="M314,265l37-33l-59-11L314,265z"/>
<path class="st69" d="M192,326l58-12l-50-37L192,326z"/>
<path class="st70" d="M133,292l59,34l8-49L133,292z"/>
<path class="st71" d="M351,232l18-21l-77,10L351,232z"/>
<path class="st72" d="M92-25l-43,5l22,87L92-25z"/>
<path class="st73" d="M45-70l4,50l43-5L45-70z"/>
<path class="st74" d="M250,314l30-3l-18-54L250,314z"/>
<path class="st75" d="M314,265l22,25l15-58L314,265z"/>
<path class="st76" d="M274,354l6-43l-30,3L274,354z"/>
<path class="st56" d="M193-52l-24-25l-48,39L193-52z"/>
<path class="st77" d="M121-38L45-70l47,45L121-38z"/>
<path class="st78" d="M238-79l-69,2l24,25L238-79z"/>
<path class="st38" d="M278-18l-40-61l-16,61H278z"/>
<path class="st79" d="M370,24l-92-42l42,81L370,24z"/>
<path class="st80" d="M133,292l32,49l27-15L133,292z"/>
<path class="st81" d="M56,246l46,76l-12-67L56,246z"/>
<path class="st82" d="M194,377l80-23l-24-40L194,377z"/>
<path class="st83" d="M102,322l63,19l-32-49L102,322z"/>
<path class="st84" d="M369,211l27-61l-39-14L369,211z"/>
<path class="st85" d="M357,136l54-56l-67,10L357,136z"/>
<path class="st86" d="M344,90l26-66l-50,39L344,90z"/>
<path class="st87" d="M411,80l-41-56l-26,66L411,80z"/>
<path class="st88" d="M303-43l-65-36l40,61L303-43z"/>
<path class="st89" d="M280,311l56-21l-22-25L280,311z"/>
<path class="st90" d="M387,260l15-63l-33,14L387,260z"/>
<path class="st91" d="M369,211l33-14l-6-47L369,211z"/>
<path class="st92" d="M-4,109l-47,30l45-7L-4,109z"/>
<path class="st72" d="M25,36l-38-7l9,80L25,36z"/>
<path class="st93" d="M-15,6l2,23l38,7L-15,6z"/>
<path class="st94" d="M102,322l-8,14l71,5L102,322z"/>
<path class="st95" d="M20,327l74,9l8-14L20,327z"/>
<path class="st96" d="M20,327l82-5l-46-76L20,327z"/>
<path class="st97" d="M387,260l-18-49l-18,21L387,260z"/>
<path class="st98" d="M370,24l5-21l-72-46L370,24z"/>
<path class="st99" d="M416,49L375,3l-5,21L416,49z"/>
<path class="st100" d="M454,110l-43-30l-15,70L454,110z"/>
<path class="st101" d="M396,150l15-70l-54,56L396,150z"/>
<path class="st102" d="M-6,132l-20,95l82-1L-6,132z"/>
<path class="st103" d="M-51,139l25,88l20-95L-51,139z"/>
<path class="st104" d="M303-43l29-8l-94-28L303-43z"/>
<path class="st105" d="M375,3l-43-54l-29,8L375,3z"/>
<path class="st106" d="M-71,91l20,48l47-30L-71,91z"/>
<path class="st107" d="M49-20L-15,6l40,30L49-20z"/>
<path class="st108" d="M-14-36l-1,42l64-26L-14-36z"/>
<path class="st109" d="M-52,60l48,49l-9-80L-52,60z"/>
<path class="st110" d="M336,290l51-30l-36-28L336,290z"/>
<path class="st111" d="M336,290l67-6l-16-24L336,290z"/>
<path class="st112" d="M280,311l47,53l9-74L280,311z"/>
<path class="st113" d="M194,377l56-63l-58,12L194,377z"/>
<path class="st114" d="M194,377l-2-51l-27,15L194,377z"/>
<path class="st115" d="M169-77L45-70l76,32L169-77z"/>
<path class="st116" d="M375,3l32-29l-75-25L375,3z"/>
<path class="st117" d="M411,80l5-31l-46-25L411,80z"/>
<path class="st118" d="M475,48l-59,1l-5,31L475,48z"/>
<path class="st119" d="M-59-1l7,61l39-31L-59-1z"/>
<path class="st100" d="M94,336l100,41l-29-36L94,336z"/>
<path class="st120" d="M-50,277l24-14v-36L-50,277z"/>
<path class="st121" d="M-26,227v36l82-17L-26,227z"/>
<path class="st122" d="M94,336l-69,41h169L94,336z"/>
<path class="st123" d="M9,324l11,3l36-81L9,324z"/>
<path class="st124" d="M-52,60l-19,31l67,18L-52,60z"/>
<path class="st125" d="M-51,139l-16,63l41,25L-51,139z"/>
<path class="st126" d="M45-70l-59,34l63,16L45-70z"/>
<path class="st127" d="M-15,6l-44-7l46,30L-15,6z"/>
<path class="st128" d="M-52,60l-7-61l-12,92L-52,60z"/>
<path class="st129" d="M402,197l41-41l-47-6L402,197z"/>
<path class="st130" d="M475,200l-32-44l-41,41L475,200z"/>
<path class="st39" d="M-71,91l4,111l16-63L-71,91z"/>
<path class="st131" d="M20,327l5,50l69-41L20,327z"/>
<path class="st123" d="M-26,263l35,61l47-78L-26,263z"/>
<path class="st132" d="M-50,277l59,47l-35-61L-50,277z"/>
<path class="st133" d="M404,378l-1-94l-67,6L404,378z"/>
<path class="st89" d="M481,266l-6-66l-73-3L481,266z"/>
<path class="st114" d="M443,156l11-46l-58,40L443,156z"/>
<path class="st134" d="M415-48l-8,22l48-7L415-48z"/>
<path class="st135" d="M416,49l-9-75L375,3L416,49z"/>
<path class="st89" d="M274,354l53,10l-47-53L274,354z"/>
<path class="st136" d="M343,383l-16-19l-53-10L343,383z"/>
<path class="st137" d="M-14-36L-59-1l44,7L-14-36z"/>
<path class="st138" d="M-67,202l17,75l24-50L-67,202z"/>
<path class="st132" d="M407-26l8-22l-83-3L407-26z"/>
<path class="st139" d="M332-51l83,3L238-79L332-51z"/>
<path class="st134" d="M454-22l-47-4l9,75L454-22z"/>
<path class="st140" d="M9,324l16,53l-5-50L9,324z"/>
<path class="st141" d="M-16,382l41-5L9,324L-16,382z"/>
<path class="st142" d="M327,364l77,14l-68-88L327,364z"/>
<path class="st143" d="M194,377l149,6l-69-29L194,377z"/>
<path class="st144" d="M-16,382l359,1l-149-6L-16,382z"/>
<path class="st145" d="M443,156l32,44l-21-90L443,156z"/>
<path class="st146" d="M481,266l-79-69l-15,63L481,266z"/>
<path class="st147" d="M481,266l-94-6l16,24L481,266z"/>
<path class="st122" d="M454,110l21-62l-64,32L454,110z"/>
<path class="st80" d="M475,200V48l-21,62L475,200z"/>
<path class="st137" d="M-14-36l-40-20l-5,55L-14-36z"/>
<path class="st127" d="M-59-1l5-55L-71,91L-59-1z"/>
<path class="st137" d="M45-70l-99,14l40,20L45-70z"/>
<path class="st148" d="M475,48l-21-70l-38,71L475,48z"/>
<path class="st149" d="M404,378l42-76l-43-18L404,378z"/>
<path class="st134" d="M475,48l-20-81l-1,11L475,48z"/>
<path class="st134" d="M454-22l1-11l-48,7L454-22z"/>
<path class="st132" d="M-73,345l6-24V202L-73,345z"/>
<path class="st150" d="M-67,202v119l17-44L-67,202z"/>
<path class="st134" d="M-50,277l-17,44l76,3L-50,277z"/>
<path class="st134" d="M-67,321l51,61l25-58L-67,321z"/>
<path class="st117" d="M25,377l-41,5l210-5H25z"/>
<path class="st151" d="M446,302l35-36l-78,18L446,302z"/>
<path class="st152" d="M475,200l6,66l-6-218V200z"/>
<path class="st153" d="M343,383l61-5l-77-14L343,383z"/>
<path class="st149" d="M446,302l1,68l34-104L446,302z"/>
<path class="st134" d="M-67,321l-6,24l57,37L-67,321z"/>
<path class="st154" d="M-71,91l-2,254l6-143L-71,91z"/>
<path class="st149" d="M404,378l43-8l-1-68L404,378z"/>
</svg>
